<svg width="154" height="16" viewBox="0 0 154 16" fill="none" xmlns="http://www.w3.org/2000/svg">
<path d="M35.4491 15.0264V0.253174H41.181C42.3453 0.253174 43.2822 0.399708 43.9918 0.699435C44.6945 0.999163 45.2457 1.45875 45.6452 2.07818C46.0448 2.69762 46.2446 3.35036 46.2446 4.02974C46.2446 4.6625 46.0655 5.25529 45.7141 5.81478C45.3628 6.37428 44.8254 6.82054 44.1089 7.16689C45.0321 7.42665 45.7417 7.87291 46.2377 8.50567C46.7338 9.13843 46.9818 9.88442 46.9818 10.7436C46.9818 11.4363 46.8302 12.0758 46.5271 12.6752C46.2239 13.2747 45.8519 13.7276 45.4041 14.0473C44.9563 14.367 44.4052 14.6135 43.73 14.78C43.0618 14.9465 42.235 15.0264 41.2637 15.0264H35.4491ZM37.4677 6.46086H40.7676C41.6632 6.46086 42.3039 6.40092 42.6966 6.28769C43.2133 6.14115 43.5991 5.89471 43.8609 5.55502C44.1227 5.21533 44.2536 4.78239 44.2536 4.26286C44.2536 3.76998 44.1296 3.3437 43.8885 2.9707C43.6473 2.59771 43.296 2.34461 42.8482 2.20473C42.3935 2.06486 41.6219 1.99825 40.5265 1.99825H37.4745V6.46086H37.4677ZM37.4677 13.2813H41.2705C41.925 13.2813 42.3797 13.2547 42.6484 13.2081C43.1169 13.1281 43.5027 12.9949 43.8127 12.8084C44.1227 12.6219 44.3845 12.3488 44.5843 11.9892C44.7841 11.6295 44.8874 11.2165 44.8874 10.7436C44.8874 10.1908 44.7427 9.71124 44.4465 9.30494C44.1572 8.89865 43.7507 8.61224 43.234 8.44573C42.7173 8.27921 41.9733 8.19928 41.0019 8.19928H37.4677V13.2813Z" fill="#263238" fill-opacity="0.5"/>
<path d="M50.02 15.0264V0.253174H61.0635V1.99825H52.0454V6.52081H60.4986V8.25257H52.0454V13.2813H61.4217V15.0264H50.02Z" fill="#263238" fill-opacity="0.5"/>
<path d="M65.5415 0.253174H75.1038V15.0198H73.0853V1.99825H67.56V9.60467C67.56 11.1499 67.4843 12.2822 67.3327 13.0016C67.1811 13.7209 66.8711 14.2804 66.3889 14.6801C65.9066 15.0797 65.3004 15.2795 64.5632 15.2795C64.1154 15.2795 63.5849 15.1996 62.958 15.0397L63.3025 13.308C63.6332 13.4412 63.9225 13.5078 64.1567 13.5078C64.6183 13.5078 64.9559 13.3413 65.1901 13.0082C65.4175 12.6752 65.5346 11.8893 65.5346 10.657V0.253174H65.5415Z" fill="#263238" fill-opacity="0.5"/>
<path d="M78.0318 7.83288C78.0318 5.38177 78.7138 3.46352 80.071 2.07811C81.4351 0.692704 83.1919 0 85.3413 0C86.7536 0 88.0213 0.32637 89.158 0.97911C90.2878 1.63185 91.1559 2.53769 91.7484 3.7033C92.3409 4.86891 92.6371 6.18771 92.6371 7.66636C92.6371 9.165 92.3271 10.5038 91.7001 11.6827C91.0732 12.8616 90.1914 13.7608 89.0409 14.3669C87.8973 14.9731 86.6572 15.2794 85.3344 15.2794C83.8946 15.2794 82.6132 14.9464 81.4764 14.2737C80.3466 13.601 79.4854 12.6885 78.8999 11.5229C78.3212 10.3573 78.0318 9.1317 78.0318 7.83288ZM80.1124 7.85952C80.1124 9.63791 80.6084 11.0433 81.6005 12.0624C82.5925 13.0881 83.8326 13.601 85.3276 13.601C86.8501 13.601 88.1039 13.0814 89.0822 12.049C90.0674 11.0167 90.5565 9.54466 90.5565 7.64638C90.5565 6.44747 90.343 5.3951 89.9227 4.49591C89.5025 3.59673 88.8893 2.90403 88.0764 2.41114C87.2703 1.91826 86.361 1.67181 85.3482 1.67181C83.9153 1.67181 82.689 2.14472 81.6556 3.09718C80.6291 4.04965 80.1124 5.64154 80.1124 7.85952Z" fill="#263238" fill-opacity="0.5"/>
<path d="M94.7728 10.2773L96.6811 10.1175C96.7707 10.8568 96.9842 11.4629 97.3149 11.9358C97.6456 12.4087 98.1554 12.795 98.8512 13.0814C99.547 13.3745 100.326 13.521 101.194 13.521C101.965 13.521 102.647 13.4078 103.233 13.188C103.825 12.9682 104.259 12.6618 104.549 12.2755C104.838 11.8892 104.983 11.4696 104.983 11.01C104.983 10.5437 104.845 10.1441 104.569 9.79776C104.294 9.45141 103.832 9.15834 103.191 8.92522C102.778 8.77203 101.876 8.53224 100.47 8.20587C99.0648 7.8795 98.0865 7.57312 97.5216 7.28671C96.7913 6.92038 96.2471 6.46079 95.8888 5.91462C95.5306 5.36845 95.3515 4.75568 95.3515 4.07629C95.3515 3.33031 95.5719 2.63094 96.006 1.98486C96.4469 1.33878 97.0807 0.845898 97.9212 0.506206C98.7617 0.173176 99.6986 0 100.725 0C101.855 0 102.854 0.173176 103.722 0.526188C104.59 0.879201 105.251 1.39873 105.72 2.08477C106.188 2.77081 106.436 3.54345 106.471 4.40933L104.535 4.5492C104.432 3.61671 104.08 2.91069 103.474 2.43112C102.875 1.95156 101.986 1.71844 100.815 1.71844C99.5953 1.71844 98.6997 1.93824 98.1416 2.37118C97.5836 2.80412 97.3011 3.32365 97.3011 3.93642C97.3011 4.46927 97.5009 4.90221 97.8936 5.24856C98.2794 5.58825 99.299 5.94127 100.939 6.30094C102.578 6.66061 103.708 6.97366 104.321 7.24009C105.21 7.63972 105.865 8.13927 106.292 8.74538C106.712 9.3515 106.925 10.0509 106.925 10.8435C106.925 11.6294 106.691 12.3688 106.23 13.0681C105.761 13.7608 105.093 14.307 104.225 14.6933C103.35 15.0796 102.372 15.2728 101.283 15.2728C99.8984 15.2728 98.741 15.0796 97.8109 14.6866C96.874 14.3003 96.1437 13.7142 95.6133 12.9282C95.0759 12.1556 94.8003 11.2698 94.7728 10.2773Z" fill="#263238" fill-opacity="0.5"/>
<path d="M109.971 15.0264V0.253174H111.989V6.32099H119.932V0.253174H121.951V15.0197H119.932V8.06607H111.989V15.0264H109.971Z" fill="#263238" fill-opacity="0.5"/>
<path d="M124.913 7.83288C124.913 5.38177 125.595 3.46352 126.953 2.07811C128.317 0.692704 130.073 0 132.223 0C133.635 0 134.903 0.32637 136.04 0.97911C137.169 1.63185 138.037 2.53769 138.63 3.7033C139.222 4.86891 139.519 6.18771 139.519 7.66636C139.519 9.165 139.209 10.5038 138.582 11.6827C137.955 12.8616 137.073 13.7608 135.922 14.3669C134.779 14.9731 133.539 15.2794 132.216 15.2794C130.776 15.2794 129.495 14.9464 128.358 14.2737C127.228 13.601 126.367 12.6885 125.781 11.5229C125.21 10.3573 124.913 9.1317 124.913 7.83288ZM127.001 7.85952C127.001 9.63791 127.497 11.0433 128.489 12.0624C129.481 13.0881 130.721 13.601 132.216 13.601C133.739 13.601 134.992 13.0814 135.971 12.049C136.956 11.0167 137.445 9.54466 137.445 7.64638C137.445 6.44747 137.231 5.3951 136.811 4.49591C136.391 3.59673 135.778 2.90403 134.965 2.41114C134.159 1.91826 133.249 1.67181 132.237 1.67181C130.804 1.67181 129.577 2.14472 128.544 3.09718C127.518 4.04965 127.001 5.64154 127.001 7.85952Z" fill="#263238" fill-opacity="0.5"/>
<path d="M142.343 15.0264V0.253174H148.103C149.116 0.253174 149.894 0.299799 150.424 0.393047C151.175 0.512938 151.802 0.746059 152.312 1.08575C152.822 1.42544 153.228 1.89835 153.538 2.51112C153.848 3.1239 154 3.79662 154 4.52263C154 5.78148 153.587 6.84052 152.76 7.71306C151.933 8.5856 150.438 9.01854 148.282 9.01854H144.362V15.0197H142.343V15.0264ZM144.362 7.28012H148.309C149.618 7.28012 150.542 7.047 151.093 6.57409C151.644 6.10119 151.913 5.44179 151.913 4.58923C151.913 3.9698 151.754 3.44361 151.43 3.00401C151.107 2.56441 150.679 2.27134 150.156 2.13147C149.818 2.04488 149.184 1.99825 148.268 1.99825H144.362V7.28012Z" fill="#263238" fill-opacity="0.5"/>
<rect x="18" y="1.27942" width="13" height="13" rx="6.5" stroke="#263238" stroke-opacity="0.5" stroke-width="2"/>
<rect x="1" y="1.27942" width="13" height="13" rx="6.5" stroke="#263238" stroke-opacity="0.5" stroke-width="2"/>
</svg>
